<svg id="Camada_1" data-name="Camada 1" xmlns="http://www.w3.org/2000/svg" viewBox="0 0 1496.67 825.95"><defs><style>.cls-1{fill:#fff;}</style></defs><title>logo-cong</title><path class="cls-1" d="M1537.72,555.59c4.63,21.08,16.1,32.1,36.18,34.44-5,1.79-9.24,2.94-13.15,4.81s-7.46,4.46-12.21,7.36c21.88,11.93,42,24.21,53.6,47.25,7.08-13,10.16-26.2,12.12-40.31,8.23,50.92,37.77,78.6,89.74,82.53-57.18,11.26-76.59,30.14-88.9,86.36-4.87-24-13.94-45.39-31.8-62.81-15.62,15.9-33.3,28.42-52,39.47-40.55,23.87-84,41.35-128.28,56.63-65.13,22.47-131.69,39.77-199.22,53.19q-62.89,12.5-126.21,22.78c-30.1,4.91-60.45,8.46-90.76,12-32.82,3.8-65.7,7.23-98.61,10.1-25.86,2.25-51.82,3.39-77.73,5-59.6,3.79-119.28,4.36-179,3.12q-53.93-1.11-107.76-5.56c-34.81-2.84-69.61-6.63-104.14-11.83-48.77-7.35-96.92-17.79-142.47-37.63-3.2-1.39-5.27-.64-6.61,2-4.23,8.42-8.24,17-12.14,25-6-22-18.48-39.79-44.43-45.08l19.52-6.38c-4.88-5.17-9.46-9.48-13.39-14.32-14.45-17.74-16.76-36.93-6.14-57.39,9.38-18.09,24.09-31.33,40.1-43.21,33.91-25.16,71.87-42.78,110.83-58.34,66-26.36,134.17-45.9,203.5-61.09,46.8-10.26,93.89-19.27,141.08-27.56,33.61-5.9,67.55-10.12,101.44-14.28,35.08-4.31,70.22-8.34,105.43-11.25,86.73-7.19,173.62-11.14,260.67-9.09,33.28.78,66.59,1.92,99.77,4.38,73.57,5.46,146.7,14.17,217.71,35.56a131,131,0,0,1,13.63,4.51c4.81,2,8.8,1,12.93-1.69C1529.56,578.63,1533.88,571.53,1537.72,555.59Zm-1261,302.7c.37.6.48,1.08.76,1.21,1.38.67,2.79,1.26,4.2,1.85,36.94,15.64,75.74,24.71,115,32.06a1152.2,1152.2,0,0,0,140.6,17.06c39.56,2.46,79.2,4.11,118.83,4.64q108,1.44,215.71-7.71c39.81-3.41,79.61-7.11,119.31-11.63,34.89-4,69.8-8.25,104.38-14.25,49.46-8.59,98.83-18,147.89-28.64,68.43-14.85,135.67-34.17,200.87-60,39.17-15.51,77.4-33,111.62-58,8.75-6.41,16.75-13.83,26.65-22.08-9.13-5.21-16.25-10.13-24-13.5s-16.55-5.31-24.09-7.64c22.48-2.25,43.19-10.15,58.72-28.65,8.5-10.13,8.48-10.84.76-21.78-11.32-16.06-27.48-26.09-44.47-34.93-1.05-.55-4.22.73-4.83,2-2.72,5.45-4.87,11.18-7.54,17.55-2.5-21.84-18.58-31.55-35.6-38.55-15.3-6.28-31.82-9.86-48-13.65-61.13-14.25-123.29-21.63-185.82-25.23-44.55-2.56-89.23-3.66-133.87-4q-100.77-.78-201.23,8.27c-41.9,3.83-83.8,7.75-125.56,12.8C768.64,570,730.33,575,692.43,582q-77.71,14.32-154.79,32.1c-63,14.62-124.71,33.66-184.42,58.74-35.5,14.92-70.06,31.68-100.78,55.3-15.35,11.8-29.26,25-37.57,43.05-11,23.89-.7,48.74,23.24,65,4.62-5.87,10.19-11.35,13.76-17.92s5-14.07,7.32-20.85c4.45,26.75,20.53,42.73,48.4,46.72C296,846.92,285.48,850.64,276.73,858.29Z" transform="translate(-207.33 -128.61)"/><path d="M1037.29,128.61c4.36.93,8.79,1.63,13.08,2.82,21.39,5.94,35.82,22.83,38.32,44.86a128.09,128.09,0,0,1,.85,14c.08,26.32,0,52.64,0,79v5c4.63-6.94,8.61-14.33,13.92-20.59,15.89-18.73,36.88-27.94,60.89-31.11,14-1.84,27.75-1.13,41.12,3.15,25,8,38.38,26.44,44.91,50.82,3.4,12.7,4.17,25.69,4.13,38.8-.1,34.88.15,69.76-.11,104.64-.13,18,3.09,34.9,14.41,50.51-12.33.62-23.58-.89-34-6.25-19.27-9.89-28.37-26.56-28.71-47.5-.6-36.81.05-73.64-.37-110.45a107.32,107.32,0,0,0-3.81-26.65c-6.79-25.07-25.26-38.65-51.16-38.67-31.26,0-52.74,16.88-59.58,47.2a69.08,69.08,0,0,0-1.54,14.85c-.11,41.34-.05,82.68-.07,124A71.29,71.29,0,0,0,1102,468a18.32,18.32,0,0,1,1,1.66c0,.1-.07.29-.11.44-27.73,2.7-55.32-12.28-60.6-44.47a95.46,95.46,0,0,1-1-15.41c-.06-77.67-.2-155.34.07-233,.07-17.9-4.52-34-14.66-48.58Z" transform="translate(-207.33 -128.61)"/><path d="M998.5,470.19c-29.07,2.64-56.14-13.42-61-44.73a95.34,95.34,0,0,1-1-14.43c-.08-34.07,0-68.14-.08-102.2,0-12.47-1.55-24.72-6.43-36.38-8.28-19.83-25.29-31.16-46.73-31.51-23.35-.39-42.28,7.57-54.57,28.23A59.75,59.75,0,0,0,820.2,300c-.08,44.07-.2,88.15.09,132.23.08,12.28,4.36,23.65,10.94,34.06.76,1.2,1.56,2.36,2.41,3.64-24.88,2.94-52.36-9.58-59.78-38.95a73.92,73.92,0,0,1-2-17.68c-.16-45.85-.25-91.71,0-137.56.1-17.1-3.6-32.85-13.3-47.05a5.42,5.42,0,0,1-.46-1.34c24.45-2.67,56.39,9,61.61,48.86a15.9,15.9,0,0,0,1.45-2.18c12.88-29.05,36.32-44.3,66.49-50.35,18-3.6,36-3.06,53.24,3.85,22.46,9,34.52,26.88,40,49.45a143.56,143.56,0,0,1,4,31.51c.47,37.61.36,75.24.14,112.85-.11,17.39,3.28,33.57,13.51,47.94C998.58,469.5,998.49,469.89,998.5,470.19Z" transform="translate(-207.33 -128.61)"/><path d="M1461.61,424.87c-4,7.4-7.47,15.82-12.69,23-11.69,16-28.75,23.48-47.77,26.46-18.59,2.91-37,1.52-54.75-5.07-52.06-19.31-58.39-77.61-29.53-112.87,16-19.54,37.37-30.79,60.76-38.68,24.91-8.4,50.67-12,76.88-12.69,1.58,0,3.16-.15,5.68-.27-1.13-7.9-1.94-15.52-3.36-23-2.68-14.16-7-27.74-15.36-39.76-17.28-24.8-50-21.35-64.46-4-8,9.64-10.67,20.42-5.8,32.41a25.92,25.92,0,0,1-9.53,30.9c-9,6.14-22.06,6.57-30.64,1s-13.26-18.11-11.41-29.52c2.27-14,10.16-24.12,21.37-32,14.83-10.5,31.74-15.46,49.45-17.83,18.74-2.5,37.37-1.61,55.48,4.13,33.63,10.67,52.81,34.54,60.13,68.2,2.44,11.23,3.16,23,3.36,34.52.48,26.47.36,53,.09,79.44-.23,21.44,0,42.65,14,61C1496.16,472.31,1467.87,460.12,1461.61,424.87Zm-1.78-119c-8.09,1-15.48,1.63-22.72,3-23.91,4.51-45.42,14-62.9,31.47-26,26-33.93,69.67-18,101,9.45,18.64,24.73,28.88,45.81,28.05,31.13-1.22,58.63-30.39,58.79-61.59.14-28.72.06-57.44,0-86.16C1460.72,316.71,1460.18,311.75,1459.83,305.91Z" transform="translate(-207.33 -128.61)"/><path d="M1415.07,686.18c-1.68-18.06-4.52-35.65-12.45-52-6.87-14.13-16.74-25.06-33.18-27.46-23.71-3.46-45.49,13.13-45.22,34.92a31.64,31.64,0,0,0,2.31,10.77,26.23,26.23,0,0,1-9.91,31.19c-9.13,6-22.2,6.37-30.59.4-10.3-7.34-12.42-18-10.82-29.66,2.07-15,11.45-25.24,23.6-33.2,15.16-9.93,32.2-14.67,50-16.41,19.22-1.88,38.38-1,56.73,5.87,31.9,12,49.45,36,56,68.49a163.52,163.52,0,0,1,3,30.22c.39,29.38.48,58.78,0,88.16-.29,19.4,1.93,37.9,13.71,54.26-23.5,2.72-54.7-7.66-61.89-46.76-.63,1.67-1,2.58-1.31,3.52-7.2,23.13-23,37.7-45.78,44.55a104.4,104.4,0,0,1-67.4-2c-52.62-19.31-58.51-78.38-29-113.51,16.12-19.19,37.4-30.24,60.62-38.06,24.76-8.34,50.44-11.5,76.42-12.64,1.29-.06,2.58-.06,3.87-.13A5.66,5.66,0,0,0,1415.07,686.18Zm-.07,2.62c-22.33-.76-51.77,8.27-71.1,21.5-36.5,25-47.53,67-36.14,103.82,9.48,30.6,37.72,44.46,66.75,33.54,23.68-8.91,41.35-33.63,41.57-58.95.24-27.61.1-55.21,0-82.81C1416,700.3,1415.38,694.7,1415,688.8Z" transform="translate(-207.33 -128.61)"/><path d="M706.88,404.81c.19,1.36.83,2.85.48,4.06-10.79,38.18-41.16,60.83-75.72,65.66-52.95,7.4-98.25-25.83-115.11-75.22-14.62-42.81-13-85.18,10.39-124.84,18.59-31.56,47.2-48.49,83.65-52,33-3.16,62,5.7,85,30.28,16.14,17.2,24.76,38.28,28.53,61.27,2,12.16,2.62,24.54,3.94,37.51H557c1.89,19.09,6.89,36.5,16.6,52.39,11.86,19.41,28.62,32.42,51.27,36.17,26.59,4.4,51.09,0,70.61-20.56a55.88,55.88,0,0,0,5.56-7.29c1.62-2.39,3-4.94,4.46-7.42Zm-28.8-57.51a21.85,21.85,0,0,0,.27-3.51c-1.49-17-2.29-34.1-4.75-51s-7.34-33-17.31-47.15c-16.54-23.46-46.58-26.31-66.23-5.42-6.92,7.35-12.36,16.55-16.72,25.74-8.74,18.47-12.3,38.5-14.69,58.68-.88,7.44-1.23,14.94-1.84,22.62Z" transform="translate(-207.33 -128.61)"/><path d="M506.2,733.7H336.53c5.55,35.71,16.79,67.14,51.92,83.34,28.5,13.13,66,6.55,85.7-14.5,4.35-4.66,7.69-10.26,12.51-16.8.06,2.76.55,4.63.06,6.2-8.32,26.94-25.07,46.56-51.16,57.69-44.23,18.87-95.28,3-123.88-38.51-17.55-25.44-24.4-54-24-84.55.34-24.9,5.87-48.56,19-70,18.05-29.38,44.23-46.65,78.47-51.3,29.16-4,56.25,1.19,79.7,19.84,20.42,16.24,31.65,38.24,37.37,63.23a191.06,191.06,0,0,1,3.83,24.76C506.69,719.64,506.2,726.26,506.2,733.7Zm-48.61-4.54a11.09,11.09,0,0,0,.26-2.06c-1.67-18.74-2.53-37.61-5.32-56.19-2.46-16.43-7.91-32.19-18.41-45.64C419.4,606.42,394.27,603,375.2,617.4c-10.37,7.81-16.8,18.59-21.95,30.18-7.16,16.14-11.09,33.21-13.57,50.6-1.45,10.15-2.12,20.41-3.18,31Z" transform="translate(-207.33 -128.61)"/><path d="M1119.27,733.67H949.76c-.44,36.08,24.64,74.82,56,85.23,26.4,8.75,52,6.53,74.64-10.89,7.08-5.45,12.18-13.48,18.68-20.9,0,1.38.54,3.24.06,4.78-10.33,32.74-32,54.05-65.29,62.4-45.75,11.47-91.43-9.6-115.66-52.54-13.92-24.67-19.05-51.37-17.89-79.49,1-25.29,7.44-49,21.68-70.09,18.12-26.91,43.42-42.52,75.56-46.87,29.16-3.95,56.25,1.17,79.71,19.81,20.43,16.23,31.52,38.26,37.49,63.2C1118.28,702.94,1119.3,717.81,1119.27,733.67Zm-170.11-4.53h121.1a273.94,273.94,0,0,0-5.51-59.78c-3.26-15.72-8-30.86-18-43.81-15.84-20.57-44.36-23.11-62.78-4.79a87.93,87.93,0,0,0-16.33,23.1C954.55,670.47,951,699.38,949.16,729.14Z" transform="translate(-207.33 -128.61)"/><path d="M1151,609.58c30.5-3.11,62,14.88,62.15,55.85q.35,98.07,0,196.15c0,17.15-2.24,34-9,50-11.62,27.34-32.81,40.75-61.93,42.65-19.33,1.26-37.93-1.46-55.19-10.73-14.44-7.76-26-18.35-29.6-35a44.85,44.85,0,0,1,0-18.1c2.4-11.59,10.39-17.81,22.49-19.21,10.27-1.18,21.93,4.69,26.72,14.06,3.54,6.93,5.27,13.69,1.79,22-5.17,12.29-3.21,24.76,4.79,35.7,9.57,13.1,27.4,13,37-.06,7.59-10.32,10.71-22.43,11.91-34.77,1.67-17,2.78-34.09,2.86-51.15.32-64.9-.08-129.8.26-194.7C1165.33,643.43,1162.52,625.75,1151,609.58Z" transform="translate(-207.33 -128.61)"/><path d="M384.75,411.9c2.2-4.76,4.17-8.94,6.07-13.15,19.7-43.54,39.29-87.12,59.13-130.58,6-13.11,6.73-26,.47-39.08a12.26,12.26,0,0,1-.52-2.13h37.22a8.86,8.86,0,0,1-1.2,1.61c-14.11,10.67-24,24.55-31.29,40.53q-44.74,98.68-89.55,197.34c-1,2.13-1.51,5.22-4.75,4.06a8.36,8.36,0,0,1-4.33-4.12q-23.28-52.49-46.29-105.11Q289,314,268.23,266.7a94.46,94.46,0,0,0-28.57-37.21c-.74-.57-1.39-1.26-2.95-2.68,12.76-.46,24.32.35,35.53,4q39.17,12.9,55.65,50.81Q355,344.07,382.21,406.43C382.91,408,383.69,409.62,384.75,411.9Z" transform="translate(-207.33 -128.61)"/><path d="M629.73,609.46c40.08-2.93,74.26,17.5,90,53.41q27.51,62.75,54.8,125.61c.69,1.59,1.45,3.15,2.48,5.4,8.17-18,16-35.29,23.83-52.57,13-28.73,25.57-57.66,39.09-86.14,7.16-15.11,9.94-29.79,1.82-45.68h37.87c-11.35,8.33-20.08,17.83-26.22,29.22-6.62,12.3-12.33,25.12-18.12,37.85q-38.76,85.23-77.41,170.52c-1,2.2-1,5.49-5,5.48s-4.15-3.15-5.15-5.42q-43.29-98.52-86.45-197.09c-6.59-15-15.82-28-28.85-38.18C631.66,611.3,631,610.62,629.73,609.46Z" transform="translate(-207.33 -128.61)"/><path d="M1215.52,567.78c-12,0-23.52.85-34.82-.23-13-1.24-21.49-10.92-22.12-24-.5-10.45-.1-20.94-.1-32.16,4.94,0,9.71-.09,14.47,0,7.39.18,14.93-.35,22.12,1,12,2.19,19.65,11.11,20.32,23.17C1216,546.3,1215.52,557.1,1215.52,567.78Z" transform="translate(-207.33 -128.61)"/></svg>